/* XPM */
static const char * ArrowRight_xpm[] = {
"24 24 136 2",
"  	c None",
"! 	c black",
"# 	c #568956",
"$ 	c #004E00",
"% 	c #004C00",
"& 	c #6BA16B",
"' 	c #2C702C",
"( 	c #4A8E4A",
") 	c #8ECC8E",
"* 	c #438543",
"+ 	c #428842",
", 	c #7DC07D",
"- 	c #81C381",
". 	c #579957",
"0 	c #055005",
"1 	c #3B883B",
"2 	c #6DB66D",
"3 	c #70B870",
"4 	c #73BA73",
"5 	c #61A561",
"6 	c #0F590F",
"7 	c #348A34",
"8 	c #5CAF5C",
"9 	c #5FB05F",
": 	c #62B162",
"; 	c #65B165",
"< 	c #61A961",
"= 	c #1B661B",
"> 	c #2D8C2D",
"? 	c #4BAA4B",
"@ 	c #4FAB4F",
"A 	c #52AB52",
"B 	c #55AA55",
"C 	c #58A858",
"D 	c #5AA55A",
"E 	c #287628",
"F 	c #005200",
"G 	c #279027",
"H 	c #3BA73B",
"I 	c #3EA73E",
"J 	c #41A641",
"K 	c #44A444",
"L 	c #47A147",
"M 	c #4A9E4A",
"N 	c #4E9B4E",
"O 	c #338033",
"P 	c #035903",
"Q 	c #229422",
"R 	c #2AA72A",
"S 	c #2DA62D",
"T 	c #31A431",
"U 	c #34A034",
"V 	c #379C37",
"W 	c #3A973A",
"X 	c #3D923D",
"Y 	c #408D40",
"Z 	c #368036",
"[ 	c #096109",
"] 	c #219A22",
"^ 	c #27AE27",
"_ 	c #29AC29",
"` 	c #29A129",
"a 	c #2A992A",
"b 	c #2B922B",
"c 	c #2D8A2D",
"d 	c #318431",
"e 	c #337C33",
"f 	c #337533",
"g 	c #518C51",
"h 	c #069707",
"i 	c #00A800",
"j 	c #00A300",
"k 	c #019C01",
"l 	c #049304",
"m 	c #058805",
"n 	c #067C06",
"o 	c #056F05",
"p 	c #036103",
"q 	c #025202",
"r 	c #054B05",
"s 	c #699D69",
"t 	c #07A108",
"u 	c #00B600",
"v 	c #00AF00",
"w 	c #00A500",
"x 	c #009900",
"y 	c #008C00",
"z 	c #007E00",
"{ 	c #007000",
"| 	c #006200",
"} 	c #076008",
"~ 	c #046A06",
" !	c #09AA0A",
"!!	c #00C300",
"#!	c #00B900",
"$!	c #00AC00",
"%!	c #009F00",
"&!	c #009000",
"'!	c #008200",
"(!	c #007300",
")!	c #0B740C",
"*!	c #026D05",
"+!	c #0AB20C",
",!	c #00CD00",
"-!	c #00BF00",
".!	c #00B000",
"0!	c #00A100",
"1!	c #009100",
"2!	c #038403",
"3!	c #0C810E",
"4!	c #006B02",
"5!	c #0CB30E",
"6!	c #00CB00",
"7!	c #00BD00",
"8!	c #00AE00",
"9!	c #089308",
":!	c #0B850E",
";!	c #006802",
"<!	c #0EAB10",
"=!	c #00B300",
">!	c #00A600",
"?!	c #0D9C0E",
"@!	c #08820B",
"A!	c #0FA312",
"B!	c #00AB00",
"C!	c #01A501",
"D!	c #139D14",
"E!	c #047C08",
"F!	c #129B14",
"G!	c #059C05",
"H!	c #149817",
"I!	c #017504",
"J!	c #33A42A",
"K!	c #129016",
"L!	c #006E03",
"M!	c #1F8915",
"                                                ",
"              # $                               ",
"              # % $                             ",
"              & ' % $                           ",
"              ( ) * % $                         ",
"              + , - . 0 $                       ",
"              1 2 3 4 5 6 $                     ",
"              7 8 9 : ; < = $                   ",
"              > ? @ A B C D E F                 ",
"              G H I J K L M N O P               ",
"              Q R S T U V W X Y Z [             ",
"              ] ^ _ R ` a b c d e f g           ",
"              h i j k l m n o p q r s           ",
"              t u v w x y z { | } ~             ",
"               !!!#!$!%!&!'!(!)!*!              ",
"              +!,!-!.!0!1!2!3!4!                ",
"              5!6!7!8!%!9!:!;!                  ",
"              <!7!=!>!?!@!;!                    ",
"              A!B!C!D!E!;!                      ",
"              F!G!H!I!;!                        ",
"              J!K!L!;!                          ",
"              M!L!;!                            ",
"              M!;!                              ",
"                                                "};