/* XPM */
static const char * ArrowLeft_xpm[] = {
"24 24 82 1",
" 	c None",
"!	c black",
"#	c #5B1E1E",
"$	c #C74242",
"%	c #712626",
"&	c #CE4444",
"'	c #C34141",
"(	c #632020",
")	c #E05D5D",
"*	c #FAACAC",
"+	c #943131",
",	c #742626",
"-	c #E77272",
".	c #F49797",
"0	c #F29494",
"1	c #923131",
"2	c #8C2F2F",
"3	c #EB7B7B",
"4	c #EE8686",
"5	c #ED8383",
"6	c #EC7E7E",
"7	c #953131",
"8	c #5D1F1F",
"9	c #A53737",
":	c #E87373",
";	c #E87575",
"<	c #E66E6E",
"=	c #E66D6D",
">	c #9C3333",
"?	c #682222",
"@	c #BE3F3F",
"A	c #E36464",
"B	c #E36363",
"C	c #E16060",
"D	c #A13636",
"E	c #752727",
"F	c #DB4D4D",
"G	c #DC5252",
"H	c #DD5353",
"I	c #DE5757",
"J	c #DD5555",
"K	c #A73838",
"L	c #832B2B",
"M	c #BD3F3F",
"N	c #C84343",
"O	c #D34545",
"P	c #D74848",
"Q	c #D94949",
"R	c #DB4C4C",
"S	c #AE3A3A",
"T	c #A83838",
"U	c #AF3A3A",
"V	c #B73C3C",
"W	c #C64141",
"X	c #CC4343",
"Y	c #D54747",
"Z	c #B33B3B",
"[	c #DC5050",
"]	c #591C1C",
"^	c #652121",
"_	c #792828",
"`	c #8D2F2F",
"a	c #9B3333",
"b	c #AB3838",
"c	c #B53C3C",
"d	c #C04040",
"e	c #AC3939",
"f	c #812A2A",
"g	c #7A2828",
"h	c #8A2E2E",
"i	c #8F2F2F",
"j	c #A23636",
"k	c #C44141",
"l	c #BC3F3F",
"m	c #A33636",
"n	c #DF5A5A",
"o	c #E56B6B",
"p	c #852C2C",
"q	c #DE5858",
"r	c #802A2A",
"s	c #CB4343",
"t	c #D14545",
"                        ",
"                #$      ",
"               #%$      ",
"              ##&'      ",
"             #()*+      ",
"            #,-.01      ",
"           #234567      ",
"          89:;:<=>      ",
"         ?@AAAABCD      ",
"        E$FGHIIJJK      ",
"       LMN&OPQFFRS      ",
"      $TUV@WXYFGHZ      ",
"      []^_`abcdNXe      ",
"       f,g2>SMXPRc      ",
"        h2ijZkYH)l      ",
"         hjmc$Qnok      ",
"          pSckPqo$      ",
"           rS'XRJW      ",
"            rmsst'      ",
"             raWlM      ",
"              ri't      ",
"               rhS      ",
"                rS      ",
"                        "};
