/* XPM */ 
static const char * Information_xpm[] = {
"24 24 294 2",
"  	c None",
"! 	c black",
"# 	c #264DA5",
"$ 	c #264EA6",
"% 	c #264EA7",
"& 	c #274FA8",
"' 	c #2750A9",
"( 	c #2750AA",
") 	c #2751AB",
"* 	c #2852AC",
"+ 	c #254CA4",
", 	c #3157AD",
"- 	c #587AC6",
". 	c #6989D2",
"0 	c #7292DA",
"1 	c #6C8DD7",
"2 	c #6688D4",
"3 	c #6185D2",
"4 	c #5278CA",
"5 	c #436BC1",
"6 	c #2E59B3",
"7 	c #2954AF",
"8 	c #3157AC",
"9 	c #6787CF",
": 	c #7D9CDE",
"; 	c #6287D8",
"< 	c #4B75D3",
"= 	c #3E6DD1",
"> 	c #3466D0",
"? 	c #3B6BD1",
"@ 	c #406ED1",
"A 	c #4772D1",
"B 	c #4C74D1",
"C 	c #3D67C5",
"D 	c #2B58B4",
"E 	c #2A57B2",
"F 	c #254BA3",
"G 	c #375CB0",
"H 	c #7D9BDD",
"I 	c #6B8DDA",
"J 	c #3D6BD1",
"K 	c #3465D0",
"L 	c #3466D1",
"M 	c #4D7AD7",
"N 	c #3467D1",
"O 	c #3468D2",
"P 	c #3469D2",
"Q 	c #366AD2",
"R 	c #3F6CD3",
"S 	c #3F6AD1",
"T 	c #2E5CBA",
"U 	c #2A59B5",
"V 	c #5980D7",
"W 	c #3465CF",
"X 	c #D9E2F6",
"Y 	c white",
"Z 	c #D9E3F7",
"[ 	c #346AD3",
"] 	c #356AD3",
"^ 	c #356BD4",
"_ 	c #366BD4",
"` 	c #396CD4",
"a 	c #386BD2",
"b 	c #2D5EBC",
"c 	c #2B5BB7",
"d 	c #7E9BDD",
"e 	c #366CD4",
"f 	c #376DD5",
"g 	c #376ED5",
"h 	c #376ED6",
"i 	c #366DD4",
"j 	c #2C5DBB",
"k 	c #6B8EDA",
"l 	c #3469D3",
"m 	c #DAE4F7",
"n 	c #376FD6",
"o 	c #3870D7",
"p 	c #3871D7",
"q 	c #336ACD",
"r 	c #2C5EBC",
"s 	c #3257AD",
"t 	c #7E9CDF",
"u 	c #366CD5",
"v 	c #5080DB",
"w 	c #3872D8",
"x 	c #3973D8",
"y 	c #3974D9",
"z 	c #3A74D9",
"{ 	c #3A75D9",
"| 	c #2E62C1",
"} 	c #597AC6",
"~ 	c #6387D8",
" !	c #366DD5",
"!!	c #346ED7",
"#!	c #326ED7",
"$!	c #326FD7",
"%!	c #3370D8",
"&!	c #316FD8",
"'!	c #3270D9",
"(!	c #3572DA",
")!	c #3772DA",
"*!	c #346BCF",
"+!	c #2D62C0",
",!	c #6A8AD3",
"-!	c #4B76D3",
".!	c #3067D3",
"0!	c #2B6AD7",
"1!	c #2D6DD8",
"2!	c #2F6FD9",
"3!	c #3070DA",
"4!	c #3171DA",
"5!	c #3172DB",
"6!	c #3471DA",
"7!	c #386ED6",
"8!	c #2E63C2",
"9!	c #7493DA",
":!	c #3F6DD1",
";!	c #2D64D1",
"<!	c #235DD0",
"=!	c #225ED1",
">!	c #2562D3",
"?!	c #3374DC",
"@!	c #3476DD",
"A!	c #3577DD",
"B!	c #3678DE",
"C!	c #3878DD",
"D!	c #4478DD",
"E!	c #2F65C4",
"F!	c #264FA8",
"G!	c #6D8ED7",
"H!	c #2C62D0",
"I!	c #2059CD",
"J!	c #1F5ACE",
"K!	c #225DD0",
"L!	c #2561D2",
"M!	c #2865D4",
"N!	c #377ADF",
"O!	c #387CE0",
"P!	c #397DE0",
"Q!	c #3A7EE1",
"R!	c #4E83E0",
"S!	c #2F67C7",
"T!	c #678AD5",
"U!	c #235ACD",
"V!	c #1B54CC",
"W!	c #1E58CE",
"X!	c #215CD0",
"Y!	c #2460D2",
"Z!	c #2764D4",
"[!	c #2A69D6",
"]!	c #3679DE",
"^!	c #3B80E2",
"_!	c #3D82E3",
"`!	c #3E84E4",
"a!	c #3F85E4",
"b!	c #578EE3",
"c!	c #3069C9",
"d!	c #6386D3",
"e!	c #3969D0",
"f!	c #1D54CB",
"g!	c #1A52CB",
"h!	c #1C56CD",
"i!	c #1F5ACF",
"j!	c #235ED1",
"k!	c #2663D3",
"l!	c #2967D5",
"m!	c #2D6CD8",
"n!	c #4188E6",
"o!	c #438AE7",
"p!	c #448BE8",
"q!	c #448BE7",
"r!	c #498DE7",
"s!	c #6098E6",
"t!	c #316ACB",
"u!	c #5378CA",
"v!	c #2C5CCA",
"w!	c #1850CA",
"x!	c #1B54CB",
"y!	c #1E58CD",
"z!	c #215CCF",
"{!	c #2765D4",
"|!	c #3D83E3",
"}!	c #4187E5",
"~!	c #468FE9",
" #	c #4891EA",
"!#	c #4992EB",
"##	c #5598EA",
"$#	c #5F97E4",
"%#	c #316CCE",
"&#	c #3B63BD",
"'#	c #3361C8",
"(#	c #1951CA",
")#	c #1C55CC",
"*#	c #1F59CE",
"+#	c #3071DA",
",#	c #448CE8",
"-#	c #4B95EC",
".#	c #4D98EE",
"0#	c #4E9AEF",
"1#	c #4E99EF",
"2#	c #68A7EE",
"3#	c #5691E0",
"4#	c #326ED0",
"5#	c #2C57B1",
"6#	c #3D67C9",
"7#	c #235FD1",
"8#	c #2E6ED9",
"9#	c #3273DB",
":#	c #438BE7",
";#	c #4B96ED",
"<#	c #4F9BEF",
"=#	c #529FF1",
">#	c #53A1F2",
"?#	c #59A4F2",
"@#	c #7DB8F1",
"A#	c #3C79D7",
"B#	c #2854AF",
"C#	c #3560C2",
"D#	c #2E5DCB",
"E#	c #1D57CD",
"F#	c #205BCF",
"G#	c #245FD1",
"H#	c #2B6AD6",
"I#	c #3375DC",
"J#	c #458EE9",
"K#	c #4A94EC",
"L#	c #4F9AEF",
"M#	c #53A0F2",
"N#	c #57A5F5",
"O#	c #59A8F6",
"P#	c #7CBDF6",
"Q#	c #66A3E9",
"R#	c #3372D5",
"S#	c #325FCA",
"T#	c #265ACD",
"U#	c #215BCF",
"V#	c #2C6BD7",
"W#	c #4790EA",
"X#	c #4C97ED",
"Y#	c #519EF1",
"Z#	c #56A5F4",
"[#	c #5BABF7",
"]#	c #76BEFA",
"^#	c #88C6F8",
"_#	c #3A7ADB",
"`#	c #2957B2",
"a#	c #2B59B8",
"b#	c #2C5BCC",
"c#	c #255CCF",
"d#	c #2560D2",
"e#	c #2866D4",
"f#	c #529FF2",
"g#	c #58A7F5",
"h#	c #75BDF9",
"i#	c #8DCCFB",
"j#	c #4788E2",
"k#	c #3576DB",
"l#	c #2B5ABB",
"m#	c #285CCE",
"n#	c #2660D2",
"o#	c #397CE0",
"p#	c #4289E7",
"q#	c #4C97EE",
"r#	c #57A2F1",
"s#	c #79BAF5",
"t#	c #86C3F6",
"u#	c #4688E1",
"v#	c #3678DD",
"w#	c #2B5CBC",
"x#	c #285FCB",
"y#	c #2D6AD7",
"z#	c #3270DA",
"{#	c #3675DC",
"|#	c #387BDF",
"}#	c #3C81E2",
"~#	c #478BE6",
" $	c #5396E9",
"!$	c #66A4EC",
"#$	c #7AB4F0",
"$$	c #65A1E8",
"%$	c #3A7ADA",
"&$	c #3576DA",
"'$	c #2C5EBB",
"($	c #2C60C0",
")$	c #2D66CD",
"*$	c #356DD5",
"+$	c #4075DC",
",$	c #4A80DF",
"-$	c #548AE2",
".$	c #5D94E5",
"0$	c #5C95E3",
"1$	c #548FDF",
"2$	c #3B78D6",
"3$	c #2D61C0",
"                # $ % & ' ( ) *                 ",
"            + , - . 0 1 2 3 4 5 6 7             ",
"        + 8 9 : ; < = > > ? @ A B C D E         ",
"      F G H I J K > > L M N O P Q R S T U       ",
"    + G H V W K > L N X Y Z [ ] ^ _ ` a b c     ",
"    8 d V W K > L N O Y Y Y e e f g h h i j     ",
"  + 9 k W K > L N O l Z Y m h n n o p p p q r   ",
"  s t J K > L N O [ _ u v n o w x y z { { z |   ",
"# } ~ K > L N O ] _  !h n !!#!$!%!&!'!(!(!)!*!+!",
"$ ,!-!K > N O [ _ .!Y Y Y Y 0!1!2!3!4!5!5!6!7!8!",
"% 9!:!> L O P ;!<!=!>!Y Y Y 2!5!?!@!A!B!B!C!D!E!",
"F!G!> L N H!I!J!K!L!M!Y Y Y ?!A!N!O!P!Q!Q!P!R!S!",
"' T!> L U!V!W!X!Y!Z![!Y Y Y ]!P!^!_!`!a!a!`!b!c!",
"( d!e!f!g!h!i!j!k!l!m!Y Y Y Q!_!a!n!o!p!q!r!s!t!",
") u!v!w!x!y!z!Y!{!0!2!Y Y Y |!}!q!~! #!#!###$#%#",
"* &#'#(#)#*#K!>!l!m!+#Y Y Y }!,# #-#.#0#1#2#3#4#",
"  5#6#f!h!i!7#k![!8#9#Y Y Y :# #;#<#=#>#?#@#A#  ",
"  B#C#D#E#F#G#Z!H#2!I#Y Y Y J#K#L#M#N#O#P#Q#R#  ",
"    D S#T#U#Y!M!V#3!@!Y Y Y W#X#Y#Z#[#]#^#_#    ",
"    `#a#b#c#d#e#V#+#Y Y Y Y Y .#f#g#h#i#j#k#    ",
"      U l#m#n#M!V#3!@!o#|!p#W#q#r#s#t#u#v#      ",
"        c w#x#{!y#z#{#|#}#~# $!$#$$$%$&$        ",
"            '$($)$*$+$,$-$.$0$1$2$R#            ",
"                3$8!E!S!c!t!%#4#                "};