/* XPM */
static const char * logo32_xpm[] = {
"32 32 38 1",
" 	c None",
".	c #C9A9A9",
"+	c #6C1111",
"@	c #A77171",
"#	c #BE9393",
"$	c #6B1010",
"%	c #B48383",
"&	c #B28484",
"*	c #BF9595",
"=	c #8E4343",
"-	c #620000",
";	c #701818",
">	c #823535",
",	c #782424",
"'	c #7B2323",
")	c #863636",
"!	c #8A4141",
"~	c #6F1616",
"{	c #813333",
"]	c #762121",
"^	c #904747",
"/	c #853939",
"(	c #7C2626",
"_	c #CAA7A7",
":	c #B18181",
"<	c #C9A6A6",
"[	c #732020",
"}	c #BD9696",
"|	c #C5A2A2",
"1	c #D0B0B0",
"2	c #7A2727",
"3	c #8B4444",
"4	c #CBADAD",
"5	c #721B1B",
"6	c #B59393",
"7	c #BC9D9D",
"8	c #DDD7D7",
"9	c #E6E6E6",
"        .+@    #$%    &$*       ",
"        =-;    >-,    '-)       ",
"        !-~    {-]    ]-{       ",
"        ^-;    /-,    (-)       ",
"        _]:    <[#    }[|       ",
"                                ",
"      1{2222222222222222{1      ",
"      {------------------{      ",
".3!34 2------------------2 _^!=.",
"+---] 2------------------2 ]---+",
"@;~5% 2------------------2 :;~;@",
"      2------------------2      ",
"      2----6777777776----2      ",
"      2----8999999998----2      ",
"      2----8999999998----2      ",
"*){)| 2----8999999998----2 </{>#",
"$---[ 2----8999999998----2 [---$",
"&'](} 2----8999999998----2 #,],%",
"      2----8999999998----2      ",
"      2----6777777776----2      ",
"      2------------------2      ",
"      2------------------2      ",
"%,],# 2------------------2 }(]'&",
"$---[ 2------------------2 [---$",
"#>{/< {------------------{ |){)*",
"      1{2222222222222222{1      ",
"                                ",
"        4]%    |[}    #[<       ",
"        3-5    )-(    ,-/       ",
"        !-~    {-]    ]-{       ",
"        3-;    )-'    ,->       ",
"        .+@    *$&    %$#       "};
