/* XPM */
static const char * logo64_xpm[] = {
"64 64 3 1",
" 	c None",
".	c #9B3737",
"+	c #620000",
"                                                                ",
"                ..        ..        ..        ..                ",
"               .++.      .++.      .++.      .++.               ",
"               ++++      ++++      ++++      ++++               ",
"               ++++      ++++      ++++      ++++               ",
"               ++++      ++++      ++++      ++++               ",
"               ++++      ++++      ++++      ++++               ",
"               .++.      .++.      .++.      .++.               ",
"                ..        ..        ..        ..                ",
"                                                                ",
"                                                                ",
"                                                                ",
"              ....................................              ",
"             ++++++++++++++++++++++++++++++++++++++             ",
"            .++++++++++++++++++++++++++++++++++++++.            ",
"  .++++.    .++++++++++++++++++++++++++++++++++++++.    .++++.  ",
" .++++++.   .++++++++++++++++++++++++++++++++++++++.   .++++++. ",
" .++++++.   .++++++++++++++++++++++++++++++++++++++.   .++++++. ",
"  .++++.    .++++++++++++++++++++++++++++++++++++++.    .++++.  ",
"            .++++++++++++++++++++++++++++++++++++++.            ",
"            .++++++++++++++++++++++++++++++++++++++.            ",
"            .++++++++++++++++++++++++++++++++++++++.            ",
"            .++++++++++++++++++++++++++++++++++++++.            ",
"            .++++++++++++++++++++++++++++++++++++++.            ",
"            .+++++++++....................+++++++++.            ",
"  .++++.    .+++++++++                    +++++++++.    .++++.  ",
" .++++++.   .+++++++++                    +++++++++.   .++++++. ",
" .++++++.   .+++++++++                    +++++++++.   .++++++. ",
"  .++++.    .+++++++++                    +++++++++.    .++++.  ",
"            .+++++++++                    +++++++++.            ",
"            .+++++++++                    +++++++++.            ",
"            .+++++++++                    +++++++++.            ",
"            .+++++++++                    +++++++++.            ",
"            .+++++++++                    +++++++++.            ",
"            .+++++++++                    +++++++++.            ",
"  .++++.    .+++++++++                    +++++++++.    .++++.  ",
" .++++++.   .+++++++++                    +++++++++.   .++++++. ",
" .++++++.   .+++++++++                    +++++++++.   .++++++. ",
"  .++++.    .+++++++++                    +++++++++.    .++++.  ",
"            .+++++++++....................+++++++++.            ",
"            .++++++++++++++++++++++++++++++++++++++.            ",
"            .++++++++++++++++++++++++++++++++++++++.            ",
"            .++++++++++++++++++++++++++++++++++++++.            ",
"            .++++++++++++++++++++++++++++++++++++++.            ",
"            .++++++++++++++++++++++++++++++++++++++.            ",
"  .++++.    .++++++++++++++++++++++++++++++++++++++.    .++++.  ",
" .++++++.   .++++++++++++++++++++++++++++++++++++++.   .++++++. ",
" .++++++.   .++++++++++++++++++++++++++++++++++++++.   .++++++. ",
"  .++++.    .++++++++++++++++++++++++++++++++++++++.    .++++.  ",
"            .++++++++++++++++++++++++++++++++++++++.            ",
"             ++++++++++++++++++++++++++++++++++++++             ",
"              ....................................              ",
"                                                                ",
"                                                                ",
"                                                                ",
"                ..        ..        ..        ..                ",
"               .++.      .++.      .++.      .++.               ",
"               ++++      ++++      ++++      ++++               ",
"               ++++      ++++      ++++      ++++               ",
"               ++++      ++++      ++++      ++++               ",
"               ++++      ++++      ++++      ++++               ",
"               .++.      .++.      .++.      .++.               ",
"                ..        ..        ..        ..                ",
"                                                                "};
