/* XPM */
static const char * Measure_xpm[] = {
"24 24 307 2",
"  	c None",
"! 	c black",
"# 	c #E4674B",
"$ 	c #CF8873",
"% 	c #D2826C",
"& 	c #CA7B65",
"' 	c #C47863",
"( 	c #D1846E",
") 	c #D2876F",
"* 	c #CE846E",
"+ 	c #CF8770",
", 	c #C47E68",
"- 	c #D18C74",
". 	c #CF8A74",
"0 	c #D39077",
"1 	c #D08E77",
"2 	c #C98971",
"3 	c #CA8B73",
"4 	c #D4967D",
"5 	c #D4977E",
"6 	c #CE937A",
"7 	c #CA927B",
"8 	c #DC997E",
"9 	c #784532",
": 	c #E1934D",
"; 	c #C5D377",
"< 	c #C4C16F",
"= 	c #C1C06B",
"> 	c #B6B566",
"? 	c #CCCA71",
"@ 	c #C3C26F",
"A 	c #C7C46E",
"B 	c #C1BE6C",
"C 	c #BDBA67",
"D 	c #C2C06C",
"E 	c #C5C46E",
"F 	c #C5C26E",
"G 	c #C9C46E",
"H 	c #B5B366",
"I 	c #BCB868",
"J 	c #C9C46F",
"K 	c #CCC76F",
"L 	c #BDB969",
"M 	c #BBBA69",
"N 	c #CCBD6B",
"O 	c #6E492C",
"P 	c #F9900B",
"Q 	c #FCD905",
"R 	c #F7C903",
"S 	c #FCD206",
"T 	c #DAB004",
"U 	c #E6BB07",
"V 	c #F8CA06",
"W 	c #FCD408",
"X 	c #DAB206",
"Y 	c #DAB209",
"Z 	c #F8CB07",
"[ 	c #FCD40A",
"] 	c #DFB707",
"^ 	c #D3AB0A",
"_ 	c #F6CB09",
"` 	c #FBD00A",
"a 	c #EBC10A",
"b 	c #C8A30B",
"c 	c #F8CC0C",
"d 	c #FAD00C",
"e 	c #FDD413",
"f 	c #744614",
"g 	c #FA953D",
"h 	c #FFE57A",
"i 	c #FFDC6E",
"j 	c #FFDA68",
"k 	c #F6D464",
"l 	c #F6D25D",
"m 	c #FFD956",
"n 	c #FFD751",
"o 	c #F4CF4B",
"p 	c #F0CA45",
"q 	c #FFD73F",
"r 	c #FFD439",
"s 	c #F7CD34",
"t 	c #EEC52E",
"u 	c #FFD329",
"v 	c #FFD026",
"w 	c #FBCC21",
"x 	c #ECBD1D",
"y 	c #FFCC19",
"z 	c #FFCD15",
"{ 	c #FFCF14",
"| 	c #76440F",
"} 	c #F9A678",
"~ 	c white",
" !	c #FFFEF4",
"!!	c #FFFFF1",
"#!	c #FFFFE1",
"$!	c #FFFFD7",
"%!	c #FFF9CF",
"&!	c #FFF5BD",
"'!	c #FFF6B3",
"(!	c #FFF6A9",
")!	c #FFF19E",
"*!	c #FFF093",
"+!	c #FFEF89",
",!	c #FFF07F",
"-!	c #FFEA75",
".!	c #FFE96A",
"0!	c #FFE861",
"1!	c #FFE956",
"2!	c #FFE44B",
"3!	c #FFE742",
"4!	c #FFE333",
"5!	c #75410E",
"6!	c #F9A56D",
"7!	c #FFFFF3",
"8!	c #FFFCE6",
"9!	c #FFECAB",
":!	c #F4A33B",
";!	c #F5AC3F",
"<!	c #FFEFA2",
"=!	c #FFF4B0",
">!	c #FFF1A1",
"?!	c #FFEF97",
"@!	c #FFED8D",
"A!	c #FFEC83",
"B!	c #FFEB7A",
"C!	c #FFE96F",
"D!	c #FFE767",
"E!	c #FFE65D",
"F!	c #FFE452",
"G!	c #FFE349",
"H!	c #FFE23F",
"I!	c #FFE436",
"J!	c #FFE028",
"K!	c #713E0C",
"L!	c #F9A769",
"M!	c #FFFFEC",
"N!	c #FFFFD8",
"O!	c #F4A638",
"P!	c #450C00",
"Q!	c #741C00",
"R!	c #FFC04A",
"S!	c #FFF9AB",
"T!	c #FFEF96",
"U!	c #FFEC82",
"V!	c #FFEA79",
"W!	c #FFE870",
"X!	c #FFE765",
"Y!	c #FFE55C",
"Z!	c #FFE353",
"[!	c #FFE249",
"]!	c #FFE13E",
"^!	c #FFDF34",
"_!	c #FFE22A",
"`!	c #FFDC1E",
"a!	c #6E3909",
"b!	c #F9A765",
"c!	c #FFFFCD",
"d!	c #F3A731",
"e!	c #400800",
"f!	c #882406",
"g!	c #FFC341",
"h!	c #FFF7A0",
"i!	c #FFEE8D",
"j!	c #FFED83",
"k!	c #FFE970",
"l!	c #FFE766",
"m!	c #FFE75D",
"n!	c #FFE453",
"o!	c #FFE13F",
"p!	c #FFDE2A",
"q!	c #FFE121",
"r!	c #FFDA16",
"s!	c #6B3507",
"t!	c #FAA962",
"u!	c #FFFFDF",
"v!	c #FFF9D3",
"w!	c #FFEE93",
"x!	c #F9AB2E",
"y!	c #FFB735",
"z!	c #FFF08B",
"{!	c #FFF09C",
"|!	c #FFED8C",
"}!	c #FFEA78",
"~!	c #FFE96D",
" #	c #FFE763",
"!#	c #FFE658",
"##	c #FFE44E",
"$#	c #FFE344",
"%#	c #FFE239",
"&#	c #FFE12E",
"'#	c #FFDF23",
"(#	c #FFE318",
")#	c #FFD90E",
"*#	c #683004",
"+#	c #FAA649",
",#	c #FFFA86",
"-#	c #FFF176",
".#	c #FFF274",
"0#	c #FFF45D",
"1#	c #FFF456",
"2#	c #FFED55",
"3#	c #FFE446",
"4#	c #FFE03E",
"5#	c #FFDE3A",
"6#	c #FFDC34",
"7#	c #FFDA2F",
"8#	c #FFD82B",
"9#	c #FFD626",
":#	c #FFD321",
";#	c #FFD11B",
"<#	c #FFCF17",
"=#	c #FFCD13",
">#	c #FFCB0E",
"?#	c #FFCD08",
"@#	c #FFC404",
"A#	c #652B01",
"B#	c #FBA530",
"C#	c #F4DA2C",
"D#	c #E6BB1E",
"E#	c #ECC318",
"F#	c #F3CE17",
"G#	c #E7BB0D",
"H#	c #E9BC01",
"I#	c #FCD400",
"J#	c #FFD500",
"K#	c #FFD000",
"L#	c #FFCD00",
"M#	c #FFCB00",
"N#	c #FFC800",
"O#	c #FFC400",
"P#	c #FFC000",
"Q#	c #FFBD00",
"R#	c #FFBA00",
"S#	c #FFB700",
"T#	c #FFB400",
"U#	c #FFB500",
"V#	c #FFB000",
"W#	c #622800",
"X#	c #FFAC30",
"Y#	c #C89820",
"Z#	c #B27112",
"[#	c #B97B10",
"]#	c #B97B0C",
"^#	c #AF6E05",
"_#	c #B57200",
"`#	c #DBAA00",
"a#	c #FFDB00",
"b#	c #FFCF00",
"c#	c #FFCC00",
"d#	c #FFCA00",
"e#	c #FFC700",
"f#	c #FFC300",
"g#	c #FFAF00",
"h#	c #622700",
"i#	c #FFB22D",
"j#	c #DDB71D",
"k#	c #E1B016",
"l#	c #DDA90F",
"m#	c #CC9106",
"n#	c #DBA601",
"o#	c #DBA300",
"p#	c #E2B000",
"q#	c #FFE400",
"r#	c #FFD700",
"s#	c #FFD400",
"t#	c #FFD200",
"u#	c #FFC900",
"v#	c #FFBF00",
"w#	c #FFB800",
"x#	c #682800",
"y#	c #DB8124",
"z#	c #DEA920",
"{#	c #DEA31B",
"|#	c #DEA315",
"}#	c #DFA211",
"~#	c #DEA30F",
" $	c #DEA210",
"!$	c #DDA112",
"#$	c #DBA213",
"$$	c #DBA013",
"%$	c #DA9C12",
"&$	c #D79610",
"'$	c #D5920D",
"($	c #D28B0B",
")$	c #D08608",
"*$	c #CE8006",
"+$	c #CB7B04",
",$	c #C97502",
"-$	c #C87100",
".$	c #C87200",
"0$	c #CB6E00",
"1$	c #521800",
"2$	c #200C06",
"3$	c #200D07",
"4$	c #200E07",
"5$	c #200E08",
"6$	c #200E09",
"7$	c #1F0D09",
"8$	c #1D0B07",
"9$	c #1B0A07",
":$	c #190706",
";$	c #180604",
"<$	c #160403",
"=$	c #140202",
">$	c #130001",
"?$	c #130000",
"@$	c #140000",
"                                                ",
"                                                ",
"                                                ",
"                                                ",
"                                                ",
"  # $ % & ' ( ) * + , - . 0 1 2 3 4 5 6 7 8 9   ",
"  : ; < = > ? @ A B C D E F G H I J K L M N O   ",
"  P Q R S T U V W X Y Z [ ] ^ _ ` a b c d e f   ",
"  g h i j k l m n o p q r s t u v w x y z { |   ",
"  } ~  !!!#!$!%!&!'!(!)!*!+!,!-!.!0!1!2!3!4!5!  ",
"  6!7!8!9!:!;!<!=!>!?!@!A!B!C!D!E!F!G!H!I!J!K!  ",
"  L!M!N!O!P!Q!R!S!T!@!U!V!W!X!Y!Z![!]!^!_!`!a!  ",
"  b!#!c!d!e!f!g!h!i!j!B!k!l!m!n!G!o!^!p!q!r!s!  ",
"  t!u!v!w!x!y!z!{!|!A!}!~! #!###$#%#&#'#(#)#*#  ",
"  +#,#-#.#0#1#2#3#4#5#6#7#8#9#:#;#<#=#>#?#@#A#  ",
"  B#C#D#E#F#G#H#I#J#K#L#M#N#O#P#Q#R#S#T#U#V#W#  ",
"  X#Y#Z#[#]#^#_#`#a#b#c#d#e#f#P#Q#R#S#T#U#g#h#  ",
"  i#j#k#l#m#n#o#p#q#r#s#t#b#c#u#e#f#v#Q#Q#w#x#  ",
"  y#z#{#|#}#~# $!$#$$$%$&$'$($)$*$+$,$-$.$0$1$  ",
"    2$2$3$4$4$5$5$6$6$7$8$9$:$;$<$=$>$?$?$@$    ",
"                                                ",
"                                                ",
"                                                ",
"                                                "};