/* XPM */
static const char * TextLabel_xpm[] = {
"24 24 101 2",
"  	c None",
"! 	c black",
"# 	c #3F53BC",
"$ 	c #99A3DC",
"% 	c #9FA9DE",
"& 	c #9AA5DD",
"' 	c #B8C0E7",
"( 	c #C1C8EA",
") 	c #C4CAEB",
"* 	c #C7CDEC",
"+ 	c #BEC5E9",
", 	c #6979CC",
"- 	c #D2D6EF",
". 	c #D6DAF1",
"0 	c #DBDEF2",
"1 	c #DCE0F3",
"2 	c #DEE1F3",
"3 	c #D8DCF1",
"4 	c #D3D8F0",
"5 	c #CAD0ED",
"6 	c #C3C9EA",
"7 	c #6C7BCD",
"8 	c #283579",
"9 	c #7685D1",
": 	c #586AC7",
"; 	c #29367A",
"< 	c #4357C0",
"= 	c #5A6BC7",
"> 	c #CCD1ED",
"? 	c #A2ACDF",
"@ 	c #2A377D",
"A 	c #7F8DD4",
"B 	c #DFE2F4",
"C 	c #E2E5F5",
"D 	c #3748A4",
"E 	c #BBC2E8",
"F 	c #8793D6",
"G 	c #3647A1",
"H 	c #BDC4E8",
"I 	c #C6CCEB",
"J 	c #2B3982",
"K 	c #939EDA",
"L 	c #3546A0",
"M 	c #B7BEE6",
"N 	c #2E3D8B",
"O 	c #9CA6DD",
"P 	c #324295",
"Q 	c #B4BCE5",
"R 	c #2F3E8C",
"S 	c #B1B9E4",
"T 	c #ABB4E2",
"U 	c #8D99D8",
"V 	c #CFD4EE",
"W 	c #B5BDE6",
"X 	c #2B3880",
"Y 	c #3F54BE",
"Z 	c #3E52BB",
"[ 	c #AEB6E3",
"] 	c #B2BAE5",
"^ 	c #A9B2E2",
"_ 	c #1F295C",
"` 	c #5769C6",
"a 	c #4055BF",
"b 	c #A3ADE0",
"c 	c #A8B1E1",
"d 	c #A5AEE0",
"e 	c #8B97D8",
"f 	c #7583D0",
"g 	c #465AC1",
"h 	c #5163C4",
"i 	c #6172CA",
"j 	c #96A1DB",
"k 	c #8A96D7",
"l 	c #8491D5",
"m 	c #828FD5",
"n 	c #6777CC",
"o 	c #8E9AD9",
"p 	c #7B89D2",
"q 	c #707FCF",
"r 	c #7C8AD3",
"s 	c #7886D1",
"t 	c #5E6FC9",
"u 	c #6475CB",
"v 	c #8895D7",
"w 	c #7281CF",
"x 	c #5B6DC8",
"y 	c #6676CB",
"z 	c #6A7ACD",
"{ 	c #3C50B5",
"| 	c #0D1126",
"} 	c #161D41",
"~ 	c #131938",
" !	c #0D1128",
"!!	c #0E132B",
"#!	c #0F142E",
"$!	c #10152F",
"%!	c #171F46",
"&!	c #171E44",
"'!	c #1B2452",
"(!	c #2C3A83",
")!	c #3B4EB2",
"                                                ",
"                                                ",
"          # $ % % % % % % % % % & $ #           ",
"        # ' ( ) ) * * * * * ) ) ( + ' #         ",
"      # , * - . 0 1 1 2 2 1 0 3 4 5 6 ) #       ",
"      # 7 * - 3 2 4 ) ) ) ) 0 0 4 5 ( 5 #       ",
"    7 8 9 * - 3 2 % : ; < = 3 0 4 > + 5 ? #     ",
"    7 @ A * - 3 2 B C D E B B 0 . 5 + 5 ) #     ",
"    7 @ F * - 0 2 B C G E C B 0 . > H I 5 #     ",
"    # J K * - 3 2 B B L M B 2 0 4 > ' ( ) #     ",
"    # N O * - 3 2 2 2 ( 3 2 2 3 4 > E + + #     ",
"    # P % ) > 4 3 0 0 0 0 0 3 . - 5 ' Q Q #     ",
"    # R % 6 5 > - - - 4 4 - - - 5 I Q S T #     ",
"    # @ U ( * > > > > V > > > > 5 I ( W % #     ",
"    X L Y Z O T [ S ] ] ] ] S ^ $ % * H % _     ",
"    X ` Y a $ b c c d d d c c % e K 6 ) c X     ",
"    X f g ` % b ? % O $ & O % O e K H * ] #     ",
"    X A h i O % j U k F F k e e l e M 5 H 7     ",
"    X m : n K o l p 9 q q 9 p r s l S 5 6 k     ",
"    X t t u v m w u x ` ` x y z n s ? * I {     ",
"      X X | } ~  !!!#!|  !$!} %!&!'!(!)!@       ",
"                                                ",
"                                                ",
"                                                "};