/* XPM */
static const char * View3D_xpm[] = {
"24 24 397 2",
"  	c None",
". 	c #262628",
"+ 	c #2F3D46",
"@ 	c #41555C",
"# 	c #2E373E",
"$ 	c #212A2F",
"% 	c #102F43",
"& 	c #7E929B",
"* 	c #EBEEF3",
"= 	c #FDFEFF",
"- 	c #D7EBEC",
"; 	c #58737A",
"> 	c #2C2D2F",
", 	c #302F2D",
"' 	c #2C2D31",
") 	c #233038",
"! 	c #283033",
"~ 	c #2B2D2C",
"{ 	c #2F2E2C",
"] 	c #2E2E2C",
"^ 	c #2D2F2E",
"/ 	c #10486B",
"( 	c #005E96",
"_ 	c #6F97B0",
": 	c #FFFFFD",
"< 	c #FFFEFF",
"[ 	c #F5FFFF",
"} 	c #E7FFFF",
"| 	c #63818C",
"1 	c #11547F",
"2 	c #0E76B5",
"3 	c #158CD0",
"4 	c #CCE9EF",
"5 	c #C5D4D9",
"6 	c #9DACB3",
"7 	c #6F8185",
"8 	c #3D464B",
"9 	c #2A2C2B",
"0 	c #125278",
"a 	c #0B7BBB",
"b 	c #0F6391",
"c 	c #D7E2E4",
"d 	c #F8FDFF",
"e 	c #F1FFFF",
"f 	c #D6FEFE",
"g 	c #D5FFFD",
"h 	c #D3FFFE",
"i 	c #D0FFFF",
"j 	c #2CA6E7",
"k 	c #018ADA",
"l 	c #158CCE",
"m 	c #E3F6FD",
"n 	c #F2FFFF",
"o 	c #F7FFFF",
"p 	c #FBFFFF",
"q 	c #B8BDC1",
"r 	c #2C2C2A",
"s 	c #212B34",
"t 	c #0C7DBF",
"u 	c #0575B4",
"v 	c #3A80A4",
"w 	c #E5FFFE",
"x 	c #E2FFFD",
"y 	c #B2E3EA",
"z 	c #285773",
"A 	c #41758A",
"B 	c #C7FBF9",
"C 	c #D6FEFD",
"D 	c #74CBE9",
"E 	c #0186D3",
"F 	c #1388CB",
"G 	c #DCF5F9",
"H 	c #EFFDFD",
"I 	c #F6FFFF",
"J 	c #FBFFFC",
"K 	c #FFFFFF",
"L 	c #9F9D9E",
"M 	c #2C2B29",
"N 	c #14435F",
"O 	c #0E87CC",
"P 	c #026CA8",
"Q 	c #488298",
"R 	c #C3EEF4",
"S 	c #DFFFFF",
"T 	c #5DAECB",
"U 	c #024E8A",
"V 	c #02578E",
"W 	c #8ECCD9",
"X 	c #DBFEFF",
"Y 	c #96E1F4",
"Z 	c #0488D3",
"` 	c #1887CC",
" .	c #D8F6F6",
"..	c #EAFFFF",
"+.	c #6B8F9B",
"@.	c #728E9A",
"#.	c #BED2DB",
"$.	c #F7FDFB",
"%.	c #FCFEFD",
"&.	c #393939",
"*.	c #1A323E",
"=.	c #0A3852",
"-.	c #031E2F",
";.	c #011724",
">.	c #112E3C",
",.	c #4A757E",
"'.	c #278CC0",
").	c #0A7CC2",
"!.	c #006EAD",
"~.	c #7BBED1",
"{.	c #D5FFFE",
"].	c #9EE7F6",
"^.	c #0A8AD5",
"/.	c #1187C5",
"(.	c #D5F7F8",
"_.	c #ECFEFF",
":.	c #326882",
"<.	c #003257",
"[.	c #004677",
"}.	c #A9CFE2",
"|.	c #F8FEFE",
"1.	c #6B6D6A",
"2.	c #1E1E20",
"3.	c #191D1E",
"4.	c #202020",
"5.	c #112637",
"6.	c #0E7FC5",
"7.	c #0078B7",
"8.	c #056DAC",
"9.	c #9FDDE8",
"0.	c #D2FFFE",
"a.	c #8BD8F6",
"b.	c #0284CF",
"c.	c #1487C6",
"d.	c #D7F6FB",
"e.	c #DFFEF8",
"f.	c #3D9FD0",
"g.	c #047EC1",
"h.	c #0581C9",
"i.	c #41A0D6",
"j.	c #E8FFFF",
"k.	c #95A8A4",
"l.	c #2C2A2F",
"m.	c #20323E",
"n.	c #105E8C",
"o.	c #0A74B2",
"p.	c #2A7DA5",
"q.	c #7FBECF",
"r.	c #CDFFFE",
"s.	c #D1FFFF",
"t.	c #47ADDD",
"u.	c #0484CF",
"v.	c #1384C6",
"w.	c #D3F4F9",
"x.	c #E0FFFF",
"y.	c #3CB0E9",
"z.	c #0994E9",
"A.	c #0C99E9",
"B.	c #209FE6",
"C.	c #D4FCFE",
"D.	c #AFCCCA",
"E.	c #2B2B2D",
"F.	c #1C3440",
"G.	c #0C85CC",
"H.	c #0D80C1",
"I.	c #036C9C",
"J.	c #A5D5D9",
"K.	c #E3FFFF",
"L.	c #82CFE9",
"M.	c #0B87CF",
"N.	c #0A86D0",
"O.	c #1586C2",
"P.	c #CEF5FC",
"Q.	c #DBFFFD",
"R.	c #37B5F2",
"S.	c #0A9CF2",
"T.	c #13A1F5",
"U.	c #18A0EA",
"V.	c #CBF3FD",
"W.	c #BCDBDD",
"X.	c #282A29",
"Y.	c #18394C",
"Z.	c #0D84C8",
"`.	c #0F6CA5",
" +	c #C3EAF1",
".+	c #EEFEFE",
"++	c #D8FFFF",
"@+	c #7ACBE9",
"#+	c #0989D0",
"$+	c #0B87CD",
"%+	c #1684C1",
"&+	c #CDF3FC",
"*+	c #DAFEFE",
"=+	c #39B6F6",
"-+	c #089EF5",
";+	c #11A3F8",
">+	c #1CA1F0",
",+	c #C4EEFC",
"'+	c #C1E1EC",
")+	c #292929",
"!+	c #16425B",
"~+	c #0E84CA",
"{+	c #077CBF",
"]+	c #1872A4",
"^+	c #95B0BB",
"/+	c #99B3B4",
"(+	c #DFFEF9",
"_+	c #74C4E9",
":+	c #047FCC",
"<+	c #CEF3F9",
"[+	c #D8FBFF",
"}+	c #37B6FB",
"|+	c #09A0F9",
"1+	c #0EA5F8",
"2+	c #1CA3F5",
"3+	c #BFEAFA",
"4+	c #BCE0EC",
"5+	c #272727",
"6+	c #1D2A30",
"7+	c #1B2E3C",
"8+	c #0C5983",
"9+	c #004265",
"0+	c #002E4F",
"a+	c #82A2B1",
"b+	c #EBFFFF",
"c+	c #C2F7FB",
"d+	c #1690D1",
"e+	c #1280BF",
"f+	c #CDF3F6",
"g+	c #D6FCFD",
"h+	c #34B7FB",
"i+	c #0CA1FB",
"j+	c #11A6FA",
"k+	c #1DA4F5",
"l+	c #C5ECFD",
"m+	c #B3D8E1",
"n+	c #262626",
"o+	c #0C5580",
"p+	c #0B72AD",
"q+	c #0066A1",
"r+	c #3D7DA0",
"s+	c #3AA2D7",
"t+	c #0E7BBE",
"u+	c #CEF4F7",
"v+	c #DAFEFA",
"w+	c #36BDFD",
"x+	c #0BA6FF",
"y+	c #0EAAFF",
"z+	c #24A9F8",
"A+	c #CAF0FD",
"B+	c #A5C2CA",
"C+	c #252525",
"D+	c #26262E",
"E+	c #1D2B36",
"F+	c #163B4D",
"G+	c #103E56",
"H+	c #143045",
"I+	c #1A2B35",
"J+	c #0E5F8E",
"K+	c #0D7CC1",
"L+	c #0274B3",
"M+	c #2F80AB",
"N+	c #F0FDF6",
"O+	c #F3FEFF",
"P+	c #49ABDC",
"Q+	c #0A7BB7",
"R+	c #D0F3F5",
"S+	c #38BDFF",
"T+	c #09A9FF",
"U+	c #0AAAFE",
"V+	c #3DB9F5",
"W+	c #D9F7FF",
"X+	c #899AA1",
"Y+	c #0D4E74",
"Z+	c #0B6FAA",
"`+	c #0968A0",
" @	c #3084B3",
".@	c #72B2D6",
"+@	c #B1D5E3",
"@@	c #44A4E0",
"#@	c #0080C4",
"$@	c #027DC1",
"%@	c #3D8EBB",
"&@	c #F4FFFF",
"*@	c #45A4DA",
"=@	c #077BB8",
"-@	c #D6F5FA",
";@	c #D9FFFD",
">@	c #33A4E0",
",@	c #0089DA",
"'@	c #0395EB",
")@	c #99D8F9",
"!@	c #DBFDFF",
"~@	c #555C62",
"{@	c #272526",
"]@	c #0F405E",
"^@	c #0B6AA0",
"/@	c #00507F",
"(@	c #92AAB6",
"_@	c #81C6F0",
":@	c #0087D8",
"<@	c #007FCC",
"[@	c #6EABCA",
"}@	c #FDFDFD",
"|@	c #E4FDFA",
"1@	c #2B93D2",
"2@	c #0C78B6",
"3@	c #D7F4F8",
"4@	c #E0FEFE",
"5@	c #78C1E2",
"6@	c #6EB9E0",
"7@	c #ACDEF5",
"8@	c #D6F2FD",
"9@	c #2C2C2E",
"0@	c #162731",
"a@	c #075D8E",
"b@	c #005080",
"c@	c #5F8497",
"d@	c #FEFFFF",
"e@	c #DEF2FD",
"f@	c #399DD8",
"g@	c #3B99CC",
"h@	c #DEEDF2",
"i@	c #FBFFFE",
"j@	c #C0EAF8",
"k@	c #087EC4",
"l@	c #137BBA",
"m@	c #D6F2F6",
"n@	c #E3FCFF",
"o@	c #DDFAFE",
"p@	c #E3FBFF",
"q@	c #DEF9FF",
"r@	c #E1FFFF",
"s@	c #778787",
"t@	c #242426",
"u@	c #093550",
"v@	c #044970",
"w@	c #1D455E",
"x@	c #DAEFF0",
"y@	c #F8FFFF",
"z@	c #F2FCFD",
"A@	c #F6FEFF",
"B@	c #61B3D9",
"C@	c #007BBE",
"D@	c #127AB9",
"E@	c #D7F3F7",
"F@	c #E5FDFD",
"G@	c #E3FAFF",
"H@	c #DFF7FF",
"I@	c #DDF4FA",
"J@	c #8699A0",
"K@	c #21221D",
"L@	c #1D1E22",
"M@	c #092332",
"N@	c #001C34",
"O@	c #697E7F",
"P@	c #F2FFFE",
"Q@	c #E9FDFB",
"R@	c #ECFFFF",
"S@	c #8FBBC8",
"T@	c #116395",
"U@	c #0C76B2",
"V@	c #1079A9",
"W@	c #B1D3DF",
"X@	c #AACCD5",
"Y@	c #87ADC0",
"Z@	c #5B7C8F",
"`@	c #293A44",
" #	c #212226",
".#	c #14303C",
"+#	c #0B3752",
"@#	c #6A8B94",
"##	c #CEE6E6",
"$#	c #DDFAF6",
"%#	c #CBE9EB",
"&#	c #637579",
"*#	c #1C4058",
"=#	c #144968",
"-#	c #194E6E",
";#	c #174F70",
">#	c #1F5577",
",#	c #2A5A70",
"'#	c #325C75",
")#	c #3F6476",
"!#	c #476472",
"~#	c #1B4A66",
"{#	c #114463",
"]#	c #205574",
"^#	c #406D84",
"/#	c #3A6375",
"(#	c #1F2C34",
"_#	c #183547",
":#	c #184258",
"<#	c #1B3E52",
"[#	c #4B5F6A",
"}#	c #596C73",
"|#	c #556970",
"                                                ",
"            . + @ #                             ",
"        $ % & * = - ; > , ' ) ! ~ { ] ^         ",
"      / ( _ : < [ } } | 1 2 3 4 5 6 7 8 9       ",
"    0 a b c d e f g h i j k l m n o d p q r     ",
"  s t u v w x y z A B C D E F G e H I J K L M   ",
"  N O P Q R S T U V W X Y Z `  ...+.@.#.$.%.&.  ",
"  *.=.-.;.>.,.'.).!.~.{.].^./.(._.:.<.[.}.|.1.  ",
"      2.3.4.5.6.7.8.9.0.a.b.c.d.e.f.g.h.i.j.k.l.",
"          m.n.o.p.q.r.s.t.u.v.w.x.y.z.A.B.C.D.E.",
"        F.G.H.I.J.K.h L.M.N.O.P.Q.R.S.T.U.V.W.X.",
"        Y.Z.a `. +.+++@+#+$+%+&+*+=+-+;+>+,+'+)+",
"        !+~+{+]+^+/+(+w _+:+%+<+[+}+|+1+2+3+4+5+",
"          6+7+8+9+0+a+b+c+d+e+f+g+h+i+j+k+l+m+n+",
"              o+p+q+r+e w s+t+u+v+w+x+y+z+A+B+C+",
"  D+E+F+G+H+I+J+K+L+M+N+O+P+Q+R+x.S+T+U+V+W+X+C+",
"  Y+Z+`+ @.@+@@@#@$@%@< &@*@=@-@;@>@,@'@)@!@~@{@",
"  ]@^@/@(@K : _@:@<@[@}@|@1@2@3@4@5@6@7@W+8@9@  ",
"  0@a@b@c@d@= e@f@g@h@i@j@k@l@m@n@o@p@q@r@s@t@  ",
"    u@v@w@x@&@y@O+z@A@d B@C@D@E@F@G@H@I@J@K@    ",
"    L@M@N@O@P@Q@b+R@o S@T@U@V@W@X@Y@Z@`@ #      ",
"        .#+#@###$#%#&#*#=#-#;#>#,#'#)#!#        ",
"          ~#{#]#^#/#(#_#  :#<#[#}#|#            ",
"                                                "};
