/* XPM */ 
static const char * ZoomOut_xpm[] = {
"24 24 222 2",
"  	c None",
"! 	c black",
"# 	c #959FA9",
"$ 	c #99A4AE",
"% 	c #96A1AC",
"& 	c #929DA9",
"' 	c #86929D",
"( 	c #78828E",
") 	c #98A2AC",
"* 	c #A7B3BE",
"+ 	c #C0CDDB",
", 	c #C1CFDE",
"- 	c #B9C7D7",
". 	c #B1C1D0",
"0 	c #ACBCCC",
"1 	c #A1B1C2",
"2 	c #8695A4",
"3 	c #6A7784",
"4 	c #C2CFDD",
"5 	c #BCCADA",
"6 	c #B1BDCE",
"7 	c #BCC8DB",
"8 	c #C2CDE1",
"9 	c #BFCBDF",
": 	c #B6C2D7",
"; 	c #A0ADC0",
"< 	c #8D9DB0",
"= 	c #8597AB",
"> 	c #677687",
"? 	c #98A3AD",
"@ 	c #C4D2E0",
"A 	c #B4C0D1",
"B 	c #CDD6E7",
"C 	c #E2EBFC",
"D 	c #E5EEFE",
"E 	c #E6EEFE",
"F 	c #E5EDFE",
"G 	c #E1EAFC",
"H 	c #D8E3F6",
"I 	c #BDCAE0",
"J 	c #7085A3",
"K 	c #8194A8",
"L 	c #6A7A8A",
"M 	c #8B959F",
"N 	c #BCCAD8",
"O 	c #B7C3D3",
"P 	c #E0E8F8",
"Q 	c #E8F0FF",
"R 	c #E9F0FF",
"S 	c #E7EFFF",
"T 	c #AEC1E3",
"U 	c #6D82A1",
"V 	c #8698AC",
"W 	c #677584",
"X 	c #9FACB9",
"Y 	c #B1BFCF",
"Z 	c #DAE2F1",
"[ 	c #E6EEFF",
"] 	c #EAF1FF",
"^ 	c #D7E3FB",
"_ 	c #9AB1D9",
"` 	c #798CA6",
"a 	c #8092A4",
"b 	c #7F8994",
"c 	c #AEBDCD",
"d 	c #BCC6D6",
"e 	c #DEE9FF",
"f 	c #DBE7FF",
"g 	c #E0EAFF",
"h 	c #E5EEFF",
"i 	c #EBF2FF",
"j 	c #E9F1FF",
"k 	c #E1EBFF",
"l 	c #C0D3F7",
"m 	c #7D92B5",
"n 	c #8D9FB2",
"o 	c #6E7C8B",
"p 	c #8794A1",
"q 	c #A4B5C6",
"r 	c #D3DBEA",
"s 	c #EBF1FF",
"t 	c #EDF3FF",
"u 	c #EEF4FF",
"v 	c #DFE9FF",
"w 	c #DDE8FF",
"x 	c #E3ECFF",
"y 	c #CEDEFE",
"z 	c #9BB0D5",
"{ 	c #8698AD",
"| 	c #818F9F",
"} 	c #8391A0",
"~ 	c #97A8BA",
" !	c #E0E7F4",
"!!	c #EEF3FF",
"#!	c #F0F5FF",
"$!	c #4D79E1",
"%!	c #4873D9",
"&!	c #446ED2",
"'!	c #3F68CA",
"(!	c #3B63C2",
")!	c #365DBA",
"*!	c #3258B3",
"+!	c #2D52AB",
",!	c #D1E0FF",
"-!	c #BBCFF2",
".!	c #8091A7",
"0!	c #8190A1",
"1!	c #7A8999",
"2!	c #8C9DB0",
"3!	c #ECF1FD",
"4!	c #F1F5FF",
"5!	c #F2F7FF",
"6!	c #294DA3",
"7!	c #D6E3FF",
"8!	c #D3E1FF",
"9!	c #C4D6F7",
":!	c #8293A8",
";!	c #8595A6",
"<!	c #687787",
"=!	c #7E90A4",
">!	c #DEE3EC",
"?!	c #F4F7FF",
"@!	c #F5F8FF",
"A!	c #F6F9FF",
"B!	c #F5F9FF",
"C!	c #F4F8FF",
"D!	c #F3F7FF",
"E!	c #F1F6FF",
"F!	c #EFF5FF",
"G!	c #ECF3FF",
"H!	c #DAE6FF",
"I!	c #D4E3FF",
"J!	c #BECEED",
"K!	c #8B9DB1",
"L!	c #8A98A8",
"M!	c #606E7D",
"N!	c #8294A8",
"O!	c #BEC4CE",
"P!	c #F7F9FF",
"Q!	c #F9FBFF",
"R!	c #F8FAFF",
"S!	c #A7B6D1",
"T!	c #93A4B7",
"U!	c #7E8C9A",
"V!	c #7B8C9F",
"W!	c #94A1AF",
"X!	c #F4F6FA",
"Y!	c #FCFDFF",
"Z!	c #FAFCFF",
"[!	c #F8FBFF",
"]!	c #F2F6FF",
"^!	c #D5E3FE",
"_!	c #8898AE",
"`!	c #8E9FB3",
"a!	c #727E8A",
"b!	c #697887",
"c!	c #899BAF",
"d!	c #BAC0C7",
"e!	c #FEFFFF",
"f!	c white",
"g!	c #F7FAFF",
"h!	c #EFF4FF",
"i!	c #DCE8FF",
"j!	c #9EABC2",
"k!	c #899BAE",
"l!	c #7B8A99",
"m!	c #7A8A9B",
"n!	c #8E9FB1",
"o!	c #BFC4C9",
"p!	c #F9F9F9",
"q!	c #FEFEFF",
"r!	c #FBFCFF",
"s!	c #DFEAFE",
"t!	c #A1ADC1",
"u!	c #8394A7",
"v!	c #7C8DA0",
"w!	c #8090A2",
"x!	c #91A2B5",
"y!	c #9CA6B2",
"z!	c #D8DBDE",
"{!	c #F7F8F9",
"|!	c #E3EAF7",
"}!	c #C2CBDB",
"~!	c #8B98A9",
" #	c #7A8C9F",
"!#	c #8592A0",
"##	c #9AA9BA",
"$#	c #808D9C",
"%#	c #95A6B9",
"&#	c #94A2B1",
"'#	c #8A97A5",
"(#	c #8896A6",
")#	c #8494A5",
"*#	c #8596A9",
"+#	c #728394",
",#	c #5C6C7D",
"-#	c #586B80",
".#	c #9FAAB6",
"0#	c #5F6367",
"1#	c #5C5C5C",
"2#	c #6F7C8A",
"3#	c #83919F",
"4#	c #8796A6",
"5#	c #8595A7",
"6#	c #8293A5",
"7#	c #7A8B9D",
"8#	c #738394",
"9#	c #637281",
":#	c #65768A",
";#	c #B8BBBF",
"<#	c #6B6B6B",
"=#	c #414141",
">#	c #5D5D5D",
"?#	c #9C9C9C",
"@#	c #8F8F8F",
"A#	c #4E4E4E",
"B#	c #878787",
"C#	c #3D3D3D",
"D#	c #3C3C3C",
"E#	c #2A2A2A",
"F#	c #505050",
"G#	c #5B5B5B",
"            # $ % & ' (                         ",
"        ) * + , - . 0 1 2 3                     ",
"      $ 4 5 6 7 8 9 : ; < = >                   ",
"    ? @ A B C D E F G H I J K L                 ",
"  M N O P Q R R R Q S S G T U V W               ",
"  X Y Z S [ ] ] ] ] R Q S ^ _ ` a               ",
"b c d R [ e f g h i ] j Q k l m n o             ",
"p q r s t u t [ v w x ] ] R y z { |             ",
"} ~  !!!#!$!%!&!'!(!)!*!+!Q ,!-!.!0!            ",
"1!2!3!4!5!%!&!'!(!)!*!+!6!7!8!9!:!;!            ",
"<!=!>!?!@!A!A!B!C!D!E!F!G!H!I!J!K!L!            ",
"M!N!O!P!Q!Q!Q!R!A!@!5!4!!!f 7!S!T!U!            ",
"  V!W!X!Y!Y!Y!Z![!A!C!]![ f ^!_!`!a!            ",
"  b!c!d!e!f!e!Y!Z!g!@!h!k i!j!k!l!              ",
"    m!n!o!p!f!q!r![!D!S s!t!u!v!                ",
"      w!x!y!z!{!r!@!|!}!~!=  #!###              ",
"        $#T!%#&#'#(#)#*#= +#,#-#.#0#1#          ",
"          2#3#4#5#6#7#8#9#    :#;#<#=#>#        ",
"                              ?#@#?#A#=#>#      ",
"                                1#B#?#A#=#>#    ",
"                                  1#B#?#A#=#>#  ",
"                                    1#B#?#A#=#C#",
"                                      1#B#?#D#E#",
"                                        F#>#G#  "};