/* XPM */ 
static const char * ZoomIn_xpm[] = {
"24 24 218 2",
"  	c None",
"! 	c black",
"# 	c #959FA9",
"$ 	c #99A4AE",
"% 	c #96A1AC",
"& 	c #929DA9",
"' 	c #86929D",
"( 	c #78838E",
") 	c #98A2AC",
"* 	c #A7B3BE",
"+ 	c #C0CDDB",
", 	c #C1CFDE",
"- 	c #B9C7D6",
". 	c #B1C1D0",
"0 	c #ACBCCC",
"1 	c #A1B1C2",
"2 	c #8695A4",
"3 	c #6A7784",
"4 	c #C2CFDD",
"5 	c #BCCADA",
"6 	c #B1BDCE",
"7 	c #BCC8DB",
"8 	c #C2CDE1",
"9 	c #BFCBDF",
": 	c #B6C2D7",
"; 	c #A0AEC0",
"< 	c #8D9DB0",
"= 	c #8597AB",
"> 	c #677687",
"? 	c #98A3AD",
"@ 	c #C4D2E0",
"A 	c #B4C0D1",
"B 	c #CDD6E7",
"C 	c #E2EBFC",
"D 	c #E5EEFE",
"E 	c #E6EEFE",
"F 	c #E5EDFE",
"G 	c #E1EAFC",
"H 	c #D8E3F6",
"I 	c #BDCAE0",
"J 	c #7084A3",
"K 	c #8194A8",
"L 	c #6A7A8A",
"M 	c #8B959F",
"N 	c #BCCAD8",
"O 	c #B7C3D3",
"P 	c #E0E8F8",
"Q 	c #E8F0FF",
"R 	c #E9F0FF",
"S 	c #E7EFFF",
"T 	c #E6EFFF",
"U 	c #AEC1E3",
"V 	c #6D82A1",
"W 	c #8698AC",
"X 	c #677584",
"Y 	c #9FACB9",
"Z 	c #B1BFCF",
"[ 	c #DAE2F1",
"] 	c #E6EEFF",
"^ 	c #E9F1FF",
"_ 	c #EAF1FF",
"` 	c #4D79E1",
"a 	c #4873D9",
"b 	c #D7E3FB",
"c 	c #9AB1D9",
"d 	c #798CA6",
"e 	c #8092A4",
"f 	c #7F8A94",
"g 	c #AEBDCD",
"h 	c #BCC6D6",
"i 	c #DEE9FF",
"j 	c #DBE7FF",
"k 	c #E0EAFF",
"l 	c #446ED2",
"m 	c #E1EBFF",
"n 	c #C0D3F7",
"o 	c #7D92B5",
"p 	c #8D9FB2",
"q 	c #6E7C8B",
"r 	c #8794A1",
"s 	c #A4B5C6",
"t 	c #D3DBEA",
"u 	c #EBF1FF",
"v 	c #EDF3FF",
"w 	c #EEF4FF",
"x 	c #EDF2FF",
"y 	c #3F68CA",
"z 	c #E3ECFF",
"{ 	c #CEDEFE",
"| 	c #9BB0D5",
"} 	c #8698AD",
"~ 	c #818F9F",
" !	c #8391A0",
"!!	c #97A8BA",
"#!	c #E0E7F4",
"$!	c #EEF3FF",
"%!	c #F0F5FF",
"&!	c #3B63C2",
"'!	c #365DBA",
"(!	c #3258B3",
")!	c #2D52AB",
"*!	c #D1E0FF",
"+!	c #BBCFF2",
",!	c #8091A7",
"-!	c #8190A1",
".!	c #7A8999",
"0!	c #8C9DB0",
"1!	c #ECF1FD",
"2!	c #F1F5FF",
"3!	c #F2F7FF",
"4!	c #294DA3",
"5!	c #D6E3FF",
"6!	c #D3E1FF",
"7!	c #C4D6F7",
"8!	c #8293A8",
"9!	c #8595A6",
":!	c #687787",
";!	c #7E90A4",
"<!	c #DEE3EC",
"=!	c #F4F7FF",
">!	c #F5F8FF",
"?!	c #F6F9FF",
"@!	c #F5F9FF",
"A!	c #F1F6FF",
"B!	c #EFF5FF",
"C!	c #ECF3FF",
"D!	c #DAE6FF",
"E!	c #D4E3FF",
"F!	c #BECEED",
"G!	c #8B9DB1",
"H!	c #8A98A8",
"I!	c #606E7D",
"J!	c #8294A8",
"K!	c #BEC4CE",
"L!	c #F7F9FF",
"M!	c #F9FBFF",
"N!	c #F8FAFF",
"O!	c #A7B6D1",
"P!	c #93A4B7",
"Q!	c #7E8C9A",
"R!	c #7B8C9F",
"S!	c #94A1AF",
"T!	c #F4F6FA",
"U!	c #FCFDFF",
"V!	c #FAFCFF",
"W!	c #F4F8FF",
"X!	c #F2F6FF",
"Y!	c #D5E3FE",
"Z!	c #8898AE",
"[!	c #8E9FB3",
"]!	c #727E8A",
"^!	c #697887",
"_!	c #899BAF",
"`!	c #BAC0C7",
"a!	c #FEFFFF",
"b!	c white",
"c!	c #F7FAFF",
"d!	c #EFF4FF",
"e!	c #DCE8FF",
"f!	c #9EABC2",
"g!	c #899BAE",
"h!	c #7B8999",
"i!	c #7A8A9B",
"j!	c #8E9FB1",
"k!	c #BFC4C9",
"l!	c #F9F9F9",
"m!	c #FEFEFF",
"n!	c #FBFCFF",
"o!	c #F8FBFF",
"p!	c #F3F7FF",
"q!	c #DFEAFE",
"r!	c #A1ADC1",
"s!	c #8394A7",
"t!	c #7C8DA0",
"u!	c #8090A2",
"v!	c #90A2B5",
"w!	c #9CA6B2",
"x!	c #D9DBDE",
"y!	c #F7F8F9",
"z!	c #E3EAF7",
"{!	c #C2CBDB",
"|!	c #8B98A9",
"}!	c #7A8C9F",
"~!	c #8592A0",
" #	c #9AA9BB",
"!#	c #808D9C",
"##	c #95A6B9",
"$#	c #94A2B1",
"%#	c #8A97A5",
"&#	c #8896A6",
"'#	c #8494A5",
"(#	c #8596A9",
")#	c #728394",
"*#	c #5C6B7D",
"+#	c #586B80",
",#	c #9FA9B6",
"-#	c #5F6367",
".#	c #5C5C5C",
"0#	c #6F7C8A",
"1#	c #83919F",
"2#	c #8796A6",
"3#	c #8595A7",
"4#	c #8293A5",
"5#	c #7A8B9D",
"6#	c #738394",
"7#	c #637281",
"8#	c #65768A",
"9#	c #B8BBBF",
":#	c #6B6B6B",
";#	c #414141",
"<#	c #5D5D5D",
"=#	c #9C9C9C",
">#	c #8F8F8F",
"?#	c #4E4E4E",
"@#	c #878787",
"A#	c #3D3D3D",
"B#	c #3C3C3C",
"C#	c #2A2A2A",
"            # $ % & ' (                         ",
"        ) * + , - . 0 1 2 3                     ",
"      $ 4 5 6 7 8 9 : ; < = >                   ",
"    ? @ A B C D E F G H I J K L                 ",
"  M N O P Q R R R Q S T G U V W X               ",
"  Y Z [ S ] ^ _ ` a R Q S b c d e               ",
"f g h R ] i j k a l _ ^ Q m n o p q             ",
"r s t u v w x ] l y z _ _ Q { | } ~             ",
" !!!#!$!%!` a l y &!'!(!)!Q *!+!,!-!            ",
".!0!1!2!3!a l y &!'!(!)!4!5!6!7!8!9!            ",
":!;!<!=!>!?!?!@!'!(!A!B!C!D!E!F!G!H!            ",
"I!J!K!L!M!M!M!N!(!)!3!2!$!j 5!O!P!Q!            ",
"  R!S!T!U!U!U!V!)!4!W!X!] j Y!Z![!]!            ",
"  ^!_!`!a!b!a!U!V!c!>!d!m e!f!g!h!              ",
"    i!j!k!l!b!m!n!o!p!S q!r!s!t!                ",
"      u!v!w!x!y!n!>!z!{!|!= }!~! #              ",
"        !#P!##$#%#&#'#(#= )#*#+#,#-#.#          ",
"          0#1#2#3#4#5#6#7#    8#9#:#;#<#        ",
"                              =#>#=#?#;#<#      ",
"                                .#@#=#?#;#<#    ",
"                                  .#@#=#?#;#<#  ",
"                                    .#@#=#?#;#A#",
"                                      .#@#=#B#C#",
"                                        .#@#B#C#"};